<svg xmlns="http://www.w3.org/2000/svg" width="35" height="31" fill="none"><path fill="#fff" d="M.53.26C.23.41 0 .82 0 1.14c0 .35.24.74.55.9.25.12.4.13 2.5.13H5.3l2.47 8.65 2.48 8.66-.2.4c-.34.67-.5 1.2-.5 1.77 0 1.42.93 2.61 2.31 2.98.3.07.79.1 1.81.1 1.27.01 1.37.02 1.06.1-.57.14-1 .38-1.44.82a3 3 0 0 0 0 4.3 3.05 3.05 0 1 0 4.31-4.3 3.06 3.06 0 0 0-1.49-.85c-.16-.03 1.8-.06 4.5-.06 3.97 0 4.72.02 4.44.08-.57.15-1 .4-1.44.83a3 3 0 0 0 0 4.3 3.05 3.05 0 0 0 5.18-1.66 3.08 3.08 0 0 0-2.3-3.47c-.3-.07-.08-.08 1.63-.08 1.83-.01 1.99-.02 2.23-.15.3-.16.55-.54.55-.89 0-.34-.24-.73-.55-.89-.27-.13-.38-.13-9.1-.13-8.28 0-8.86 0-9.08-.13-.56-.27-.7-.87-.36-1.55l.18-.37h9.04c8.97 0 9.05 0 9.33-.14.19-.1.31-.23.4-.43A576.2 576.2 0 0 0 35 5.2c0-.28-.27-.7-.55-.85-.22-.12-.7-.13-13.33-.13H8.02L7.56 2.6C7 .62 6.92.45 6.54.26 6.25.13 6.14.12 3.5.12.94.12.77.13.53.26ZM32.58 6.4l-1.76 6.15-1.72 6.04H12.12l-1.72-6.04-1.76-6.15c-.03-.11.57-.12 11.97-.12s12 0 11.97.12ZM15.93 26.92c.3.15.54.54.54.9 0 .5-.51 1.01-1.03 1.01-.31 0-.74-.27-.89-.56a.98.98 0 0 1 .4-1.33c.32-.2.62-.2.98-.02Zm10.32 0c.3.15.55.54.55.9 0 .5-.52 1.01-1.04 1.01-.31 0-.73-.27-.88-.56a.98.98 0 0 1 .39-1.33c.32-.2.62-.2.98-.02Z"/></svg>