<svg xmlns="http://www.w3.org/2000/svg" width="355" height="73" fill="none"><path fill="#312626" d="M3 10A10 10 0 0 1 13 0h30a10 10 0 0 1 10 10v30a10 10 0 0 1-10 10H21.68c-1.02 0-1.94.6-2.34 1.54a2.54 2.54 0 0 1-4.68 0A2.54 2.54 0 0 0 12.32 50h-2.7A6.63 6.63 0 0 1 3 43.37V10Z"/><path fill="#fff" d="M17.27 37 8.03 16h3.24l8.49 19.38H17.9L26.45 16h3l-9.21 21h-2.97Zm17.55-11.07h10.83v2.58H34.82v-2.58Zm.3 11.07h-3V16h14.82v2.61H35.12V37Z"/><path fill="#000" d="m72.92 36-7.4-17.5h6.36l6.02 14.77h-3.78l6.2-14.77h5.8L78.72 36h-5.8Zm14.1 0V22.32h5.66V36h-5.65Zm2.83-14.77a3.58 3.58 0 0 1-2.47-.83 2.64 2.64 0 0 1-.93-2.05c0-.82.3-1.5.93-2.05a3.58 3.58 0 0 1 2.47-.83c1.03 0 1.86.26 2.48.78.61.52.92 1.18.92 2 0 .87-.3 1.58-.92 2.15-.62.55-1.45.83-2.48.83Zm14.83.84c1.05 0 2 .22 2.85.66a4.5 4.5 0 0 1 2 1.97c.5.9.75 2.07.75 3.5V36h-5.65v-6.82c0-.86-.15-1.45-.45-1.8a1.5 1.5 0 0 0-1.23-.55c-.38 0-.74.09-1.07.27-.32.17-.57.45-.77.85-.19.4-.28.94-.28 1.63V36h-5.65V22.32h5.38v4l-1.08-1.14a5.5 5.5 0 0 1 5.2-3.1Zm14.65 14.18c-1.88 0-3.35-.45-4.4-1.35-1.05-.92-1.57-2.32-1.57-4.2V19.25H119v11.4c0 .42.1.74.32.98.24.23.52.35.85.35.49 0 .91-.13 1.28-.38l1.35 3.92a5 5 0 0 1-1.58.55c-.6.12-1.23.18-1.9.18Zm-7.85-9.05v-4.13h10.33v4.13h-10.33Zm21.03 8.8v-2.42l-.4-.66v-4.6c0-.66-.21-1.17-.63-1.52-.4-.35-1.06-.53-1.97-.53-.62 0-1.24.1-1.88.3-.63.19-1.17.45-1.62.78l-1.8-3.73a9.6 9.6 0 0 1 2.87-1.14c1.12-.27 2.21-.4 3.28-.4 2.35 0 4.16.52 5.45 1.57 1.3 1.05 1.95 2.72 1.95 5V36h-5.25Zm-3.88.25c-1.11 0-2.05-.2-2.8-.58a4.11 4.11 0 0 1-1.7-1.52 4.16 4.16 0 0 1-.57-2.15c0-.88.22-1.63.67-2.25a4.1 4.1 0 0 1 2.05-1.4c.94-.32 2.11-.48 3.53-.48h2.85v2.73h-1.95c-.6 0-1.04.1-1.33.3-.26.18-.4.47-.4.85 0 .32.12.58.35.8.25.2.59.3 1 .3.39 0 .74-.1 1.05-.3.34-.22.58-.55.73-1l.72 1.68a3.57 3.57 0 0 1-1.37 2.27c-.7.5-1.64.75-2.83.75Zm18.76 4.85a16.3 16.3 0 0 1-3.8-.43 9.4 9.4 0 0 1-3.05-1.27l1.9-3.85a8.2 8.2 0 0 0 4.38 1.35c1.17 0 2-.25 2.5-.75.5-.48.75-1.18.75-2.1V32.9l.25-4.25.02-4.25v-2.07h5.38v10.95c0 2.64-.73 4.61-2.2 5.9-1.47 1.28-3.51 1.92-6.13 1.92Zm-1.1-5.85a6.55 6.55 0 0 1-5.65-3.1 6.46 6.46 0 0 1-.92-3.5c0-1.35.3-2.52.92-3.5a6.35 6.35 0 0 1 2.43-2.27c1-.54 2.07-.8 3.22-.8 1.19 0 2.15.23 2.9.7.77.46 1.34 1.19 1.7 2.17.37.97.55 2.2.55 3.7s-.18 2.74-.55 3.73c-.36.96-.93 1.69-1.7 2.17-.75.47-1.71.7-2.9.7Zm1.5-4.4c.45 0 .85-.1 1.2-.28.35-.18.63-.44.83-.77.2-.33.3-.72.3-1.15 0-.45-.1-.83-.3-1.15-.2-.33-.48-.58-.83-.75a2.55 2.55 0 0 0-1.2-.27c-.43 0-.83.09-1.2.27-.35.17-.63.42-.85.75-.2.32-.3.7-.3 1.15 0 .43.1.82.3 1.15.22.33.5.6.85.77.37.19.77.28 1.2.28Zm17.98 5.4c-1.67 0-3.13-.3-4.38-.92a6.7 6.7 0 0 1-3.9-6.18c0-1.38.33-2.6 1-3.67a7.06 7.06 0 0 1 2.78-2.5c1.18-.6 2.5-.9 3.97-.9 1.35 0 2.6.26 3.73.8a6.46 6.46 0 0 1 2.75 2.37 6.88 6.88 0 0 1 1.05 3.9 10.73 10.73 0 0 1-.08 1.33h-10.52v-2.73h7.52l-2.12.73c0-.54-.1-.99-.3-1.36a2 2 0 0 0-.78-.87 2.16 2.16 0 0 0-1.2-.32c-.47 0-.87.1-1.22.32-.34.2-.6.5-.78.88-.18.36-.27.81-.27 1.35v.84c0 .59.11 1.09.35 1.5.23.42.56.74 1 .95.43.2.95.3 1.57.3.63 0 1.15-.08 1.55-.25a5.9 5.9 0 0 0 1.3-.75l2.95 2.98a6.6 6.6 0 0 1-2.47 1.65 9.9 9.9 0 0 1-3.5.55Zm21.95-10.3h7.7v4.45h-7.7v-4.45Zm.4 10.05h-5.9V18.5h14.22v4.45h-8.32V36Zm17 .25a9.1 9.1 0 0 1-4.13-.9 7.2 7.2 0 0 1-2.8-2.52 6.66 6.66 0 0 1-1.03-3.68 6.66 6.66 0 0 1 3.83-6.17 9.1 9.1 0 0 1 4.13-.9c1.54 0 2.92.3 4.12.9a6.81 6.81 0 0 1 3.82 6.17c0 1.38-.34 2.6-1.02 3.68a6.98 6.98 0 0 1-2.8 2.52c-1.2.6-2.58.9-4.13.9Zm0-4.4c.41 0 .79-.1 1.12-.3.33-.2.6-.5.8-.9.2-.42.3-.92.3-1.5 0-.6-.1-1.1-.3-1.47-.2-.4-.47-.7-.8-.9-.33-.2-.7-.3-1.13-.3-.41 0-.79.1-1.12.3-.33.2-.6.5-.8.9-.2.38-.3.87-.3 1.47 0 .58.1 1.08.3 1.5.2.4.47.7.8.9.33.2.7.3 1.13.3Zm16.94 4.4a9.1 9.1 0 0 1-4.13-.9 7.2 7.2 0 0 1-2.8-2.52 6.67 6.67 0 0 1-1.02-3.68 6.67 6.67 0 0 1 3.82-6.17 9.1 9.1 0 0 1 4.13-.9c1.55 0 2.92.3 4.12.9a6.81 6.81 0 0 1 3.83 6.17c0 1.38-.34 2.6-1.03 3.68a6.98 6.98 0 0 1-2.8 2.52c-1.2.6-2.57.9-4.12.9Zm0-4.4c.41 0 .79-.1 1.12-.3.34-.2.6-.5.8-.9.2-.42.3-.92.3-1.5 0-.6-.1-1.1-.3-1.47-.2-.4-.46-.7-.8-.9-.33-.2-.7-.3-1.12-.3-.42 0-.8.1-1.13.3-.33.2-.6.5-.8.9-.2.38-.3.87-.3 1.47 0 .58.1 1.08.3 1.5.2.4.47.7.8.9.34.2.71.3 1.13.3Zm15.72 4.4a6.67 6.67 0 0 1-3.3-.85c-1-.58-1.8-1.4-2.4-2.45a7.63 7.63 0 0 1-.9-3.8c0-1.47.3-2.72.9-3.77a6.29 6.29 0 0 1 5.7-3.3c1.2 0 2.18.25 2.95.77.76.5 1.33 1.27 1.7 2.32.36 1.04.55 2.36.55 3.98 0 1.63-.18 2.98-.53 4.02a4.15 4.15 0 0 1-1.65 2.33c-.75.5-1.76.75-3.02.75Zm1.35-4.4c.41 0 .79-.1 1.12-.3.34-.2.6-.5.8-.9.2-.42.3-.92.3-1.5 0-.6-.1-1.1-.3-1.47-.2-.4-.47-.7-.8-.9-.33-.2-.7-.3-1.12-.3-.42 0-.8.1-1.13.3-.33.2-.6.5-.8.9-.2.38-.3.87-.3 1.47 0 .58.1 1.08.3 1.5.2.4.47.7.8.9.34.2.71.3 1.13.3Zm2.4 4.15v-1.85l-.03-5-.25-5v-6.7h5.65V36h-5.37Z"/></svg>